<svg width="319.088mm" height="111.223mm" viewBox="0 0 319.088 111.223" xmlns="http://www.w3.org/2000/svg"><g id="svgGroup" stroke-linecap="round" fill-rule="evenodd" font-size="9pt" stroke="#000" stroke-width="0.25mm" fill="none" style="stroke:#000;stroke-width:0.25mm;fill:none"><path d="M 0 111.223 L 319.088 111.223 L 319.088 0 L 0 0 L 0 111.223 Z M 33.505 3.477 L 46.505 3.477 A 0.5 0.5 0 0 1 47.005 3.977 L 47.005 16.978 A 0.5 0.5 0 0 1 46.505 17.478 L 33.505 17.478 A 0.5 0.5 0 0 1 33.005 16.978 L 33.005 3.977 A 0.5 0.5 0 0 1 33.505 3.477 Z M 52.555 2.525 L 65.555 2.525 A 0.5 0.5 0 0 1 66.055 3.025 L 66.055 16.025 A 0.5 0.5 0 0 1 65.555 16.525 L 52.555 16.525 A 0.5 0.5 0 0 1 52.055 16.025 L 52.055 3.025 A 0.5 0.5 0 0 1 52.555 2.525 Z M 234.483 2.525 L 247.483 2.525 A 0.5 0.5 0 0 1 247.983 3.025 L 247.983 16.025 A 0.5 0.5 0 0 1 247.483 16.525 L 234.483 16.525 A 0.5 0.5 0 0 1 233.983 16.025 L 233.983 3.025 A 0.5 0.5 0 0 1 234.483 2.525 Z M 14.455 3.477 L 27.455 3.477 A 0.5 0.5 0 0 1 27.955 3.977 L 27.955 16.978 A 0.5 0.5 0 0 1 27.455 17.478 L 14.455 17.478 A 0.5 0.5 0 0 1 13.955 16.978 L 13.955 3.977 A 0.5 0.5 0 0 1 14.455 3.477 Z M 253.533 3.477 L 266.533 3.477 A 0.5 0.5 0 0 1 267.033 3.977 L 267.033 16.978 A 0.5 0.5 0 0 1 266.533 17.478 L 253.533 17.478 A 0.5 0.5 0 0 1 253.033 16.978 L 253.033 3.977 A 0.5 0.5 0 0 1 253.533 3.477 Z M 282.108 3.477 L 295.108 3.477 A 0.5 0.5 0 0 1 295.608 3.977 L 295.608 16.978 A 0.5 0.5 0 0 1 295.108 17.478 L 282.108 17.478 A 0.5 0.5 0 0 1 281.608 16.978 L 281.608 3.977 A 0.5 0.5 0 0 1 282.108 3.477 Z M 228.768 21.575 L 241.768 21.575 A 0.5 0.5 0 0 1 242.268 22.075 L 242.268 35.075 A 0.5 0.5 0 0 1 241.768 35.575 L 228.768 35.575 A 0.5 0.5 0 0 1 228.268 35.075 L 228.268 22.075 A 0.5 0.5 0 0 1 228.768 21.575 Z M 15.407 22.528 L 28.408 22.528 A 0.5 0.5 0 0 1 28.908 23.028 L 28.908 36.028 A 0.5 0.5 0 0 1 28.408 36.528 L 15.407 36.528 A 0.5 0.5 0 0 1 14.907 36.028 L 14.907 23.028 A 0.5 0.5 0 0 1 15.407 22.528 Z M 39.22 22.528 L 52.22 22.528 A 0.5 0.5 0 0 1 52.72 23.028 L 52.72 36.028 A 0.5 0.5 0 0 1 52.22 36.528 L 39.22 36.528 A 0.5 0.5 0 0 1 38.72 36.028 L 38.72 23.028 A 0.5 0.5 0 0 1 39.22 22.528 Z M 247.818 22.528 L 260.818 22.528 A 0.5 0.5 0 0 1 261.318 23.028 L 261.318 36.028 A 0.5 0.5 0 0 1 260.818 36.528 L 247.818 36.528 A 0.5 0.5 0 0 1 247.318 36.028 L 247.318 23.028 A 0.5 0.5 0 0 1 247.818 22.528 Z M 266.868 22.528 L 279.868 22.528 A 0.5 0.5 0 0 1 280.368 23.028 L 280.368 36.028 A 0.5 0.5 0 0 1 279.868 36.528 L 266.868 36.528 A 0.5 0.5 0 0 1 266.368 36.028 L 266.368 23.028 A 0.5 0.5 0 0 1 266.868 22.528 Z M 290.68 22.528 L 303.68 22.528 A 0.5 0.5 0 0 1 304.18 23.028 L 304.18 36.028 A 0.5 0.5 0 0 1 303.68 36.528 L 290.68 36.528 A 0.5 0.5 0 0 1 290.18 36.028 L 290.18 23.028 A 0.5 0.5 0 0 1 290.68 22.528 Z M 13.979 41.578 L 26.979 41.578 A 0.5 0.5 0 0 1 27.479 42.078 L 27.479 55.078 A 0.5 0.5 0 0 1 26.979 55.578 L 13.979 55.578 A 0.5 0.5 0 0 1 13.479 55.078 L 13.479 42.078 A 0.5 0.5 0 0 1 13.979 41.578 Z M 40.173 41.578 L 53.173 41.578 A 0.5 0.5 0 0 1 53.673 42.078 L 53.673 55.078 A 0.5 0.5 0 0 1 53.173 55.578 L 40.173 55.578 A 0.5 0.5 0 0 1 39.673 55.078 L 39.673 42.078 A 0.5 0.5 0 0 1 40.173 41.578 Z M 237.34 41.578 L 250.34 41.578 A 0.5 0.5 0 0 1 250.84 42.078 L 250.84 55.078 A 0.5 0.5 0 0 1 250.34 55.578 L 237.34 55.578 A 0.5 0.5 0 0 1 236.84 55.078 L 236.84 42.078 A 0.5 0.5 0 0 1 237.34 41.578 Z M 256.39 41.578 L 269.39 41.578 A 0.5 0.5 0 0 1 269.89 42.078 L 269.89 55.078 A 0.5 0.5 0 0 1 269.39 55.578 L 256.39 55.578 A 0.5 0.5 0 0 1 255.89 55.078 L 255.89 42.078 A 0.5 0.5 0 0 1 256.39 41.578 Z M 287.346 41.578 L 300.346 41.578 A 0.5 0.5 0 0 1 300.846 42.078 L 300.846 55.078 A 0.5 0.5 0 0 1 300.346 55.578 L 287.346 55.578 A 0.5 0.5 0 0 1 286.846 55.078 L 286.846 42.078 A 0.5 0.5 0 0 1 287.346 41.578 Z M 14.931 60.628 L 27.931 60.628 A 0.5 0.5 0 0 1 28.431 61.128 L 28.431 74.128 A 0.5 0.5 0 0 1 27.931 74.628 L 14.931 74.628 A 0.5 0.5 0 0 1 14.431 74.128 L 14.431 61.128 A 0.5 0.5 0 0 1 14.931 60.628 Z M 45.888 60.628 L 58.888 60.628 A 0.5 0.5 0 0 1 59.388 61.128 L 59.388 74.128 A 0.5 0.5 0 0 1 58.888 74.628 L 45.888 74.628 A 0.5 0.5 0 0 1 45.388 74.128 L 45.388 61.128 A 0.5 0.5 0 0 1 45.888 60.628 Z M 231.625 60.628 L 244.625 60.628 A 0.5 0.5 0 0 1 245.125 61.128 L 245.125 74.128 A 0.5 0.5 0 0 1 244.625 74.628 L 231.625 74.628 A 0.5 0.5 0 0 1 231.125 74.128 L 231.125 61.128 A 0.5 0.5 0 0 1 231.625 60.628 Z M 250.675 60.628 L 263.675 60.628 A 0.5 0.5 0 0 1 264.175 61.128 L 264.175 74.128 A 0.5 0.5 0 0 1 263.675 74.628 L 250.675 74.628 A 0.5 0.5 0 0 1 250.175 74.128 L 250.175 61.128 A 0.5 0.5 0 0 1 250.675 60.628 Z M 286.394 60.628 L 299.394 60.628 A 0.5 0.5 0 0 1 299.894 61.128 L 299.894 74.128 A 0.5 0.5 0 0 1 299.394 74.628 L 286.394 74.628 A 0.5 0.5 0 0 1 285.894 74.128 L 285.894 61.128 A 0.5 0.5 0 0 1 286.394 60.628 Z M 7.788 79.678 L 20.788 79.678 A 0.5 0.5 0 0 1 21.288 80.178 L 21.288 93.178 A 0.5 0.5 0 0 1 20.788 93.678 L 7.788 93.678 A 0.5 0.5 0 0 1 7.288 93.178 L 7.288 80.178 A 0.5 0.5 0 0 1 7.788 79.678 Z M 245.913 79.678 L 258.913 79.678 A 0.5 0.5 0 0 1 259.413 80.178 L 259.413 93.178 A 0.5 0.5 0 0 1 258.913 93.678 L 245.913 93.678 A 0.5 0.5 0 0 1 245.413 93.178 L 245.413 80.178 A 0.5 0.5 0 0 1 245.913 79.678 Z M 269.725 79.678 L 282.725 79.678 A 0.5 0.5 0 0 1 283.225 80.178 L 283.225 93.178 A 0.5 0.5 0 0 1 282.725 93.678 L 269.725 93.678 A 0.5 0.5 0 0 1 269.225 93.178 L 269.225 80.178 A 0.5 0.5 0 0 1 269.725 79.678 Z M 298.3 79.678 L 311.3 79.678 A 0.5 0.5 0 0 1 311.8 80.178 L 311.8 93.178 A 0.5 0.5 0 0 1 311.3 93.678 L 298.3 93.678 A 0.5 0.5 0 0 1 297.8 93.178 L 297.8 80.178 A 0.5 0.5 0 0 1 298.3 79.678 Z M 36.363 79.678 L 49.363 79.678 A 0.5 0.5 0 0 1 49.863 80.178 L 49.863 93.178 A 0.5 0.5 0 0 1 49.363 93.678 L 36.363 93.678 A 0.5 0.5 0 0 1 35.863 93.178 L 35.863 80.178 A 0.5 0.5 0 0 1 36.363 79.678 Z M 111.915 12.726 L 124.631 15.429 A 0.5 0.5 0 0 1 125.016 16.022 L 122.313 28.738 A 0.5 0.5 0 0 1 121.72 29.123 L 109.004 26.42 A 0.5 0.5 0 0 1 108.619 25.827 L 111.322 13.111 A 0.5 0.5 0 0 1 111.915 12.726 Z M 130.549 16.687 L 143.265 19.39 A 0.5 0.5 0 0 1 143.65 19.983 L 140.947 32.699 A 0.5 0.5 0 0 1 140.354 33.084 L 127.638 30.381 A 0.5 0.5 0 0 1 127.253 29.788 L 129.956 17.072 A 0.5 0.5 0 0 1 130.549 16.687 Z M 61.37 21.458 L 74.086 24.161 A 0.5 0.5 0 0 1 74.471 24.754 L 71.768 37.47 A 0.5 0.5 0 0 1 71.175 37.855 L 58.459 35.152 A 0.5 0.5 0 0 1 58.074 34.559 L 60.777 21.843 A 0.5 0.5 0 0 1 61.37 21.458 Z M 80.004 25.419 L 92.72 28.122 A 0.5 0.5 0 0 1 93.105 28.715 L 90.402 41.431 A 0.5 0.5 0 0 1 89.809 41.816 L 77.093 39.113 A 0.5 0.5 0 0 1 76.708 38.52 L 79.411 25.804 A 0.5 0.5 0 0 1 80.004 25.419 Z M 156.106 16.961 L 168.822 14.258 A 0.5 0.5 0 0 1 169.415 14.643 L 172.117 27.359 A 0.5 0.5 0 0 1 171.732 27.952 L 159.016 30.655 A 0.5 0.5 0 0 1 158.423 30.27 L 155.721 17.554 A 0.5 0.5 0 0 1 156.106 16.961 Z M 174.739 13 L 187.455 10.297 A 0.5 0.5 0 0 1 188.048 10.682 L 190.751 23.398 A 0.5 0.5 0 0 1 190.366 23.991 L 177.65 26.694 A 0.5 0.5 0 0 1 177.057 26.309 L 174.354 13.593 A 0.5 0.5 0 0 1 174.739 13 Z M 193.373 9.039 L 206.089 6.336 A 0.5 0.5 0 0 1 206.682 6.721 L 209.385 19.437 A 0.5 0.5 0 0 1 209 20.03 L 196.284 22.733 A 0.5 0.5 0 0 1 195.691 22.348 L 192.988 9.632 A 0.5 0.5 0 0 1 193.373 9.039 Z M 81.633 45.241 L 94.349 47.944 A 0.5 0.5 0 0 1 94.734 48.537 L 92.031 61.253 A 0.5 0.5 0 0 1 91.438 61.638 L 78.722 58.935 A 0.5 0.5 0 0 1 78.337 58.342 L 81.04 45.626 A 0.5 0.5 0 0 1 81.633 45.241 Z M 100.267 49.202 L 112.983 51.904 A 0.5 0.5 0 0 1 113.368 52.497 L 110.665 65.213 A 0.5 0.5 0 0 1 110.072 65.598 L 97.356 62.896 A 0.5 0.5 0 0 1 96.971 62.303 L 99.674 49.587 A 0.5 0.5 0 0 1 100.267 49.202 Z M 118.9 53.162 L 131.616 55.865 A 0.5 0.5 0 0 1 132.001 56.458 L 129.299 69.174 A 0.5 0.5 0 0 1 128.706 69.559 L 115.99 66.856 A 0.5 0.5 0 0 1 115.605 66.263 L 118.307 53.547 A 0.5 0.5 0 0 1 118.9 53.162 Z M 68.355 61.894 L 81.071 64.597 A 0.5 0.5 0 0 1 81.456 65.19 L 78.754 77.906 A 0.5 0.5 0 0 1 78.161 78.291 L 65.445 75.588 A 0.5 0.5 0 0 1 65.06 74.995 L 67.762 62.279 A 0.5 0.5 0 0 1 68.355 61.894 Z M 86.989 65.855 L 99.705 68.558 A 0.5 0.5 0 0 1 100.09 69.151 L 97.387 81.867 A 0.5 0.5 0 0 1 96.794 82.252 L 84.078 79.549 A 0.5 0.5 0 0 1 83.693 78.956 L 86.396 66.24 A 0.5 0.5 0 0 1 86.989 65.855 Z M 105.623 69.816 L 118.339 72.518 A 0.5 0.5 0 0 1 118.724 73.112 L 116.021 85.827 A 0.5 0.5 0 0 1 115.428 86.213 L 102.712 83.51 A 0.5 0.5 0 0 1 102.327 82.917 L 105.03 70.201 A 0.5 0.5 0 0 1 105.623 69.816 Z M 124.257 73.776 L 136.972 76.479 A 0.5 0.5 0 0 1 137.358 77.072 L 134.655 89.788 A 0.5 0.5 0 0 1 134.062 90.173 L 121.346 87.47 A 0.5 0.5 0 0 1 120.961 86.877 L 123.664 74.161 A 0.5 0.5 0 0 1 124.257 73.776 Z M 88.153 85.578 L 100.869 88.281 A 0.5 0.5 0 0 1 101.254 88.874 L 98.551 101.59 A 0.5 0.5 0 0 1 97.958 101.975 L 85.242 99.272 A 0.5 0.5 0 0 1 84.857 98.679 L 87.56 85.963 A 0.5 0.5 0 0 1 88.153 85.578 Z M 125.42 93.499 L 138.136 96.202 A 0.5 0.5 0 0 1 138.521 96.795 L 135.818 109.511 A 0.5 0.5 0 0 1 135.225 109.896 L 122.509 107.193 A 0.5 0.5 0 0 1 122.124 106.6 L 124.827 93.884 A 0.5 0.5 0 0 1 125.42 93.499 Z M 150.75 37.575 L 163.465 34.872 A 0.5 0.5 0 0 1 164.059 35.257 L 166.761 47.973 A 0.5 0.5 0 0 1 166.376 48.566 L 153.66 51.269 A 0.5 0.5 0 0 1 153.067 50.884 L 150.364 38.168 A 0.5 0.5 0 0 1 150.75 37.575 Z M 157.505 55.614 L 170.221 52.911 A 0.5 0.5 0 0 1 170.814 53.297 L 173.517 66.012 A 0.5 0.5 0 0 1 173.132 66.606 L 160.416 69.308 A 0.5 0.5 0 0 1 159.823 68.923 L 157.12 56.207 A 0.5 0.5 0 0 1 157.505 55.614 Z M 176.139 51.654 L 188.855 48.951 A 0.5 0.5 0 0 1 189.448 49.336 L 192.151 62.052 A 0.5 0.5 0 0 1 191.766 62.645 L 179.05 65.348 A 0.5 0.5 0 0 1 178.457 64.963 L 175.754 52.247 A 0.5 0.5 0 0 1 176.139 51.654 Z M 194.773 47.693 L 207.489 44.99 A 0.5 0.5 0 0 1 208.082 45.375 L 210.785 58.091 A 0.5 0.5 0 0 1 210.399 58.684 L 197.684 61.387 A 0.5 0.5 0 0 1 197.09 61.002 L 194.388 48.286 A 0.5 0.5 0 0 1 194.773 47.693 Z M 153.081 76.03 L 165.797 73.327 A 0.5 0.5 0 0 1 166.39 73.713 L 169.093 86.429 A 0.5 0.5 0 0 1 168.708 87.022 L 155.992 89.724 A 0.5 0.5 0 0 1 155.399 89.339 L 152.696 76.623 A 0.5 0.5 0 0 1 153.081 76.03 Z M 171.715 72.07 L 184.431 69.367 A 0.5 0.5 0 0 1 185.024 69.752 L 187.726 82.468 A 0.5 0.5 0 0 1 187.341 83.061 L 174.625 85.764 A 0.5 0.5 0 0 1 174.032 85.379 L 171.329 72.663 A 0.5 0.5 0 0 1 171.715 72.07 Z M 190.348 68.109 L 203.064 65.406 A 0.5 0.5 0 0 1 203.657 65.791 L 206.36 78.507 A 0.5 0.5 0 0 1 205.975 79.1 L 193.259 81.803 A 0.5 0.5 0 0 1 192.666 81.418 L 189.963 68.702 A 0.5 0.5 0 0 1 190.348 68.109 Z M 208.982 64.148 L 221.698 61.445 A 0.5 0.5 0 0 1 222.291 61.83 L 224.994 74.546 A 0.5 0.5 0 0 1 224.609 75.139 L 211.893 77.842 A 0.5 0.5 0 0 1 211.3 77.457 L 208.597 64.741 A 0.5 0.5 0 0 1 208.982 64.148 Z M 175.675 90.703 L 188.391 88 A 0.5 0.5 0 0 1 188.984 88.386 L 191.687 101.102 A 0.5 0.5 0 0 1 191.302 101.695 L 178.586 104.397 A 0.5 0.5 0 0 1 177.993 104.012 L 175.29 91.296 A 0.5 0.5 0 0 1 175.675 90.703 Z M 74.647 4.805 L 87.363 7.508 A 0.5 0.5 0 0 1 87.749 8.101 L 85.046 20.817 A 0.5 0.5 0 0 1 84.453 21.202 L 71.737 18.499 A 0.5 0.5 0 0 1 71.352 17.906 L 74.054 5.19 A 0.5 0.5 0 0 1 74.647 4.805 Z M 93.281 8.766 L 105.997 11.468 A 0.5 0.5 0 0 1 106.382 12.061 L 103.679 24.777 A 0.5 0.5 0 0 1 103.086 25.162 L 90.37 22.46 A 0.5 0.5 0 0 1 89.985 21.867 L 92.688 9.151 A 0.5 0.5 0 0 1 93.281 8.766 Z M 98.637 29.38 L 111.353 32.082 A 0.5 0.5 0 0 1 111.738 32.676 L 109.036 45.391 A 0.5 0.5 0 0 1 108.442 45.777 L 95.727 43.074 A 0.5 0.5 0 0 1 95.341 42.481 L 98.044 29.765 A 0.5 0.5 0 0 1 98.637 29.38 Z M 117.271 33.34 L 129.987 36.043 A 0.5 0.5 0 0 1 130.372 36.636 L 127.669 49.352 A 0.5 0.5 0 0 1 127.076 49.737 L 114.36 47.034 A 0.5 0.5 0 0 1 113.975 46.441 L 116.678 33.725 A 0.5 0.5 0 0 1 117.271 33.34 Z M 62.999 41.28 L 75.715 43.983 A 0.5 0.5 0 0 1 76.1 44.576 L 73.397 57.292 A 0.5 0.5 0 0 1 72.804 57.677 L 60.089 54.974 A 0.5 0.5 0 0 1 59.703 54.381 L 62.406 41.665 A 0.5 0.5 0 0 1 62.999 41.28 Z M 212.007 5.078 L 224.723 2.376 A 0.5 0.5 0 0 1 225.316 2.761 L 228.019 15.477 A 0.5 0.5 0 0 1 227.634 16.07 L 214.918 18.773 A 0.5 0.5 0 0 1 214.325 18.387 L 211.622 5.671 A 0.5 0.5 0 0 1 212.007 5.078 Z M 169.383 33.614 L 182.099 30.911 A 0.5 0.5 0 0 1 182.692 31.296 L 185.395 44.012 A 0.5 0.5 0 0 1 185.01 44.605 L 172.294 47.308 A 0.5 0.5 0 0 1 171.701 46.923 L 168.998 34.207 A 0.5 0.5 0 0 1 169.383 33.614 Z M 188.017 29.653 L 200.733 26.95 A 0.5 0.5 0 0 1 201.326 27.336 L 204.029 40.051 A 0.5 0.5 0 0 1 203.644 40.644 L 190.928 43.347 A 0.5 0.5 0 0 1 190.335 42.962 L 187.632 30.246 A 0.5 0.5 0 0 1 188.017 29.653 Z M 206.651 25.693 L 219.367 22.99 A 0.5 0.5 0 0 1 219.96 23.375 L 222.662 36.091 A 0.5 0.5 0 0 1 222.277 36.684 L 209.561 39.387 A 0.5 0.5 0 0 1 208.968 39.001 L 206.266 26.286 A 0.5 0.5 0 0 1 206.651 25.693 Z M 213.406 43.732 L 226.122 41.029 A 0.5 0.5 0 0 1 226.715 41.414 L 229.418 54.13 A 0.5 0.5 0 0 1 229.033 54.723 L 216.317 57.426 A 0.5 0.5 0 0 1 215.724 57.041 L 213.021 44.325 A 0.5 0.5 0 0 1 213.406 43.732 Z M 197.94 86.993 L 203.809 85.746 A 0.5 0.5 0 0 1 204.402 86.131 L 207.313 99.825 A 0.5 0.5 0 0 1 206.928 100.418 L 201.059 101.665 A 0.5 0.5 0 0 1 200.466 101.28 L 197.555 87.586 A 0.5 0.5 0 0 1 197.94 86.993 Z M 103.045 89.766 L 108.914 91.013 A 0.5 0.5 0 0 1 109.299 91.606 L 106.389 105.3 A 0.5 0.5 0 0 1 105.796 105.685 L 99.927 104.438 A 0.5 0.5 0 0 1 99.542 103.845 L 102.452 90.151 A 0.5 0.5 0 0 1 103.045 89.766 Z M 79.691 84.802 L 85.56 86.049 A 0.5 0.5 0 0 1 85.945 86.642 L 83.034 100.336 A 0.5 0.5 0 0 1 82.441 100.721 L 76.573 99.474 A 0.5 0.5 0 0 1 76.187 98.881 L 79.098 85.187 A 0.5 0.5 0 0 1 79.691 84.802 Z M 160.673 94.914 L 166.542 93.667 A 0.5 0.5 0 0 1 167.135 94.052 L 170.046 107.746 A 0.5 0.5 0 0 1 169.661 108.339 L 163.792 109.587 A 0.5 0.5 0 0 1 163.199 109.202 L 160.288 95.508 A 0.5 0.5 0 0 1 160.673 94.914 Z M 273.67 4.477 L 279.67 4.477 A 0.5 0.5 0 0 1 280.17 4.977 L 280.17 18.978 A 0.5 0.5 0 0 1 279.67 19.478 L 273.67 19.478 A 0.5 0.5 0 0 1 273.17 18.978 L 273.17 4.977 A 0.5 0.5 0 0 1 273.67 4.477 Z M 297.546 4.477 L 303.546 4.477 A 0.5 0.5 0 0 1 304.046 4.977 L 304.046 18.978 A 0.5 0.5 0 0 1 303.546 19.478 L 297.546 19.478 A 0.5 0.5 0 0 1 297.046 18.978 L 297.046 4.977 A 0.5 0.5 0 0 1 297.546 4.477 Z M 278.908 42.578 L 284.908 42.578 A 0.5 0.5 0 0 1 285.408 43.078 L 285.408 57.078 A 0.5 0.5 0 0 1 284.908 57.578 L 278.908 57.578 A 0.5 0.5 0 0 1 278.408 57.078 L 278.408 43.078 A 0.5 0.5 0 0 1 278.908 42.578 Z M 302.784 42.578 L 308.784 42.578 A 0.5 0.5 0 0 1 309.284 43.078 L 309.284 57.078 A 0.5 0.5 0 0 1 308.784 57.578 L 302.784 57.578 A 0.5 0.5 0 0 1 302.284 57.078 L 302.284 43.078 A 0.5 0.5 0 0 1 302.784 42.578 Z M 6.493 61.628 L 12.493 61.628 A 0.5 0.5 0 0 1 12.993 62.128 L 12.993 76.128 A 0.5 0.5 0 0 1 12.493 76.628 L 6.493 76.628 A 0.5 0.5 0 0 1 5.993 76.128 L 5.993 62.128 A 0.5 0.5 0 0 1 6.493 61.628 Z M 30.369 61.628 L 36.369 61.628 A 0.5 0.5 0 0 1 36.869 62.128 L 36.869 76.128 A 0.5 0.5 0 0 1 36.369 76.628 L 30.369 76.628 A 0.5 0.5 0 0 1 29.869 76.128 L 29.869 62.128 A 0.5 0.5 0 0 1 30.369 61.628 Z M 277.956 61.628 L 283.956 61.628 A 0.5 0.5 0 0 1 284.456 62.128 L 284.456 76.128 A 0.5 0.5 0 0 1 283.956 76.628 L 277.956 76.628 A 0.5 0.5 0 0 1 277.456 76.128 L 277.456 62.128 A 0.5 0.5 0 0 1 277.956 61.628 Z M 301.832 61.628 L 307.832 61.628 A 0.5 0.5 0 0 1 308.332 62.128 L 308.332 76.128 A 0.5 0.5 0 0 1 307.832 76.628 L 301.832 76.628 A 0.5 0.5 0 0 1 301.332 76.128 L 301.332 62.128 A 0.5 0.5 0 0 1 301.832 61.628 Z" vector-effect="non-scaling-stroke"/></g></svg>