<?xml version="1.0" encoding="UTF-8"?>
<svg id="Layer_1" data-name="Layer 1" xmlns="http://www.w3.org/2000/svg" version="1.1" xmlns:svg="http://www.w3.org/2000/svg" viewBox="0 0 1728 1296">
  <defs>
    <style>
      .cls-1 {
        stroke-linejoin: round;
      }

      .cls-1, .cls-2 {
        fill: none;
        stroke: #000;
        stroke-linecap: round;
        stroke-width: 0px;
      }

      .cls-2 {
        stroke-miterlimit: 11.3;
      }
    </style>
  </defs>
  <g>
    <path class="cls-1" d="M483.2,152.3l-1.2,760.9"/>
    <path class="cls-1" d="M170.7,28.6c-66.6-1.1-121.4,52-122.5,118.6,0,2.3,0,4.6,0,6.9"/>
    <path class="cls-1" d="M359.5,1038.7c66.6,1.1,121.4-52,122.5-118.6,0-2.3,0-4.6,0-6.9"/>
    <path class="cls-1" d="M48.5,555.4l1,360.6"/>
    <path class="cls-1" d="M49.5,916c-1.1,66.6,52,121.4,118.6,122.5,2.3,0,4.6,0,6.9,0"/>
    <path class="cls-1" d="M50,453.9l84.3,50"/>
    <path class="cls-1" d="M483.2,152.3c1.1-66.6-52-121.4-118.6-122.5-2.3,0-4.6,0-6.9,0"/>
    <path class="cls-1" d="M357.7,29.9l-187-1.2"/>
    <path class="cls-1" d="M50,453.9l-1.7-299.8"/>
    <path class="cls-1" d="M359.5,1038.7l-184.5-.3"/>
    <path class="cls-1" d="M134.3,504l-85.7,51.4"/>
  </g>
  <g id="svgGroup">
    <path class="cls-2" d="M406.6,169.2v36.9c0,.8-.6,1.4-1.4,1.4h-36.9c-.8,0-1.4-.6-1.4-1.4v-36.9c0-.8.6-1.4,1.4-1.4h36.9c.8,0,1.4.6,1.4,1.4ZM410.6,223.2v36.9c0,.8-.6,1.4-1.4,1.4h-36.9c-.8,0-1.4-.6-1.4-1.4v-36.9c0-.8.6-1.4,1.4-1.4h36.9c.8,0,1.4.6,1.4,1.4ZM410.6,768.6v36.9c0,.8-.6,1.4-1.4,1.4h-36.9c-.8,0-1.4-.6-1.4-1.4v-36.9c0-.8.6-1.4,1.4-1.4h36.9c.8,0,1.4.6,1.4,1.4ZM406.6,115.2v36.9c0,.8-.6,1.4-1.4,1.4h-36.9c-.8,0-1.4-.6-1.4-1.4v-36.9c0-.8.6-1.4,1.4-1.4h36.9c.8,0,1.4.6,1.4,1.4ZM408,822.6v36.9c0,.8-.6,1.4-1.4,1.4h-36.9c-.8,0-1.4-.6-1.4-1.4v-36.9c0-.8.6-1.4,1.4-1.4h36.9c.8,0,1.4.6,1.4,1.4ZM406.7,904.2v36.9c0,.8-.6,1.4-1.4,1.4h-36.9c-.8,0-1.4-.6-1.4-1.4v-36.9c0-.8.6-1.4,1.4-1.4h36.9c.8,0,1.4.6,1.4,1.4ZM357.4,760.7v36.9c0,.8-.6,1.4-1.4,1.4h-36.9c-.8,0-1.4-.6-1.4-1.4v-36.9c0-.8.6-1.4,1.4-1.4h36.9c.8,0,1.4.6,1.4,1.4ZM352.6,120.6v36.9c0,.8-.6,1.4-1.4,1.4h-36.9c-.8,0-1.4-.6-1.4-1.4v-36.9c0-.8.6-1.4,1.4-1.4h36.9c.8,0,1.4.6,1.4,1.4ZM352.6,187.9v36.9c0,.8-.6,1.4-1.4,1.4h-36.9c-.8,0-1.4-.6-1.4-1.4v-36.9c0-.8.6-1.4,1.4-1.4h36.9c.8,0,1.4.6,1.4,1.4ZM352.7,814.9v36.9c0,.8-.6,1.4-1.4,1.4h-36.9c-.8,0-1.4-.6-1.4-1.4v-36.9c0-.8.6-1.4,1.4-1.4h36.9c.8,0,1.4.6,1.4,1.4ZM352.1,868.8v36.9c0,.8-.6,1.4-1.4,1.4h-36.9c-.8,0-1.4-.6-1.4-1.4v-36.9c0-.8.6-1.4,1.4-1.4h36.9c.8,0,1.4.6,1.4,1.4ZM352.1,935.8v36.9c0,.8-.6,1.4-1.4,1.4h-36.9c-.8,0-1.4-.6-1.4-1.4v-36.9c0-.8.6-1.4,1.4-1.4h36.9c.8,0,1.4.6,1.4,1.4ZM298.4,113.8v36.9c0,.8-.6,1.4-1.4,1.4h-36.9c-.8,0-1.4-.6-1.4-1.4v-36.9c0-.8.6-1.4,1.4-1.4h36.9c.8,0,1.4.6,1.4,1.4ZM298.8,187.9v36.9c0,.8-.6,1.4-1.4,1.4h-36.9c-.8,0-1.4-.6-1.4-1.4v-36.9c0-.8.6-1.4,1.4-1.4h36.9c.8,0,1.4.6,1.4,1.4ZM297.2,777.9v36.9c0,.8-.6,1.4-1.4,1.4h-36.9c-.8,0-1.4-.6-1.4-1.4v-36.9c0-.8.6-1.4,1.4-1.4h36.9c.8,0,1.4.6,1.4,1.4ZM299.3,831.6v36.9c0,.8-.6,1.4-1.4,1.4h-36.9c-.8,0-1.4-.6-1.4-1.4v-36.9c0-.8.6-1.4,1.4-1.4h36.9c.8,0,1.4.6,1.4,1.4h0ZM298.3,920v36.9c0,.8-.6,1.4-1.4,1.4h-36.9c-.8,0-1.4-.6-1.4-1.4v-36.9c0-.8.6-1.4,1.4-1.4h36.9c.8,0,1.4.6,1.4,1.4ZM243.7,102.8v36.9c0,.8-.6,1.4-1.4,1.4h-36.9c-.8,0-1.4-.6-1.4-1.4v-36.9c0-.8.6-1.4,1.4-1.4h36.9c.8,0,1.4.6,1.4,1.4ZM245.3,190.9v36.9c0,.8-.6,1.4-1.4,1.4h-36.9c-.8,0-1.4-.6-1.4-1.4v-36.9c0-.8.6-1.4,1.4-1.4h36.9c.8,0,1.4.6,1.4,1.4ZM245.3,765.7v36.9c0,.8-.6,1.4-1.4,1.4h-36.9c-.8,0-1.4-.6-1.4-1.4v-36.9c0-.8.6-1.4,1.4-1.4h36.9c.8,0,1.4.6,1.4,1.4ZM244.4,819.4v36.9c0,.8-.6,1.4-1.4,1.4h-36.9c-.8,0-1.4-.6-1.4-1.4v-36.9c0-.8.6-1.4,1.4-1.4h36.9c.8,0,1.4.6,1.4,1.4ZM190.8,81.1v36.9c0,.8-.6,1.4-1.4,1.4h-36.9c-.8,0-1.4-.6-1.4-1.4v-36.9c0-.8.6-1.4,1.4-1.4h36.9c.8,0,1.4.6,1.4,1.4ZM190.8,804.9v36.9c0,.8-.6,1.4-1.4,1.4h-36.9c-.8,0-1.4-.6-1.4-1.4v-36.9c0-.8.6-1.4,1.4-1.4h36.9c.8,0,1.4.6,1.4,1.4ZM190.8,873.1v36.9c0,.8-.6,1.4-1.4,1.4h-36.9c-.8,0-1.4-.6-1.4-1.4v-36.9c0-.8.6-1.4,1.4-1.4h36.9c.8,0,1.4.6,1.4,1.4ZM190.8,954.4v36.9c0,.8-.6,1.4-1.4,1.4h-36.9c-.8,0-1.4-.6-1.4-1.4v-36.9c0-.8.6-1.4,1.4-1.4h36.9c.8,0,1.4.6,1.4,1.4ZM190.8,163.9v36.9c0,.8-.6,1.4-1.4,1.4h-36.9c-.8,0-1.4-.6-1.4-1.4v-36.9c0-.8.6-1.4,1.4-1.4h36.9c.8,0,1.4.6,1.4,1.4ZM376.7,390.5l-7.7,36c-.2.8-.9,1.3-1.7,1.1l-36-7.7c-.8-.2-1.3-.9-1.1-1.7l7.7-36c.2-.8.9-1.3,1.7-1.1l36,7.7c.8.2,1.3.9,1.1,1.7ZM365.8,443.3l-7.7,36c-.2.8-.9,1.3-1.7,1.1l-36-7.7c-.8-.2-1.3-.9-1.1-1.7l7.7-36c.2-.8.9-1.3,1.7-1.1l36,7.7c.8.2,1.3.9,1.1,1.7ZM351.9,252.9l-7.7,36c-.2.8-.9,1.3-1.7,1.1l-36-7.7c-.8-.2-1.3-.9-1.1-1.7l7.7-36c.2-.8.9-1.3,1.7-1.1l36,7.7c.8.2,1.3.9,1.1,1.7ZM340.1,305.7l-7.7,36c-.2.8-.9,1.3-1.7,1.1l-36-7.7c-.8-.2-1.3-.9-1.1-1.7l7.7-36c.2-.8.9-1.3,1.7-1.1l36,7.7c.8.2,1.3.9,1.1,1.7ZM368.2,546l7.7,36c.2.8-.3,1.5-1.1,1.7l-36,7.7c-.8.2-1.5-.3-1.7-1.1l-7.7-36c-.2-.8.3-1.5,1.1-1.7l36-7.7c.8-.2,1.5.3,1.7,1.1ZM379.6,599.3l7.7,36c.2.8-.3,1.5-1.1,1.7l-36,7.7c-.8.2-1.5-.3-1.7-1.1l-7.7-36c-.2-.8.3-1.5,1.1-1.7l36-7.7c.8-.2,1.5.3,1.7,1.1ZM390.8,651.7l7.7,36c.2.8-.3,1.5-1.1,1.7l-36,7.7c-.8.2-1.5-.3-1.7-1.1l-7.7-36c-.2-.8.3-1.5,1.1-1.7l36-7.7c.8-.2,1.5.3,1.7,1.1ZM285.3,304.3l-7.7,36c-.2.8-.9,1.3-1.7,1.1l-36-7.7c-.8-.2-1.3-.9-1.1-1.7l7.7-36c.2-.8.9-1.3,1.7-1.1l36,7.7c.8.2,1.3.9,1.1,1.7ZM274.1,356.7l-7.7,36c-.2.8-.9,1.3-1.7,1.1l-36-7.7c-.8-.2-1.3-.9-1.1-1.7l7.7-36c.2-.8.9-1.3,1.7-1.1l36,7.7c.8.2,1.3.9,1.1,1.7ZM262.9,409.6l-7.7,36c-.2.8-.9,1.3-1.7,1.1l-36-7.7c-.8-.2-1.3-.9-1.1-1.7l7.7-36c.2-.8.9-1.3,1.7-1.1l36,7.7c.8.2,1.3.9,1.1,1.7ZM240.3,254.7l-7.7,36c-.2.8-.9,1.3-1.7,1.1l-36-7.7c-.8-.2-1.3-.9-1.1-1.7l7.7-36c.2-.8.9-1.3,1.7-1.1l36,7.7c.8.2,1.3.9,1.1,1.7ZM228.9,306.7l-7.7,36c-.2.8-.9,1.3-1.7,1.1l-36-7.7c-.8-.2-1.3-.9-1.1-1.7l7.7-36c.2-.8.9-1.3,1.7-1.1l36,7.7c.8.2,1.3.9,1.1,1.7ZM217.1,360.3l-7.7,36c-.2.8-.9,1.3-1.7,1.1,0,0,0,0,0,0l-36-7.7c-.8-.2-1.3-.9-1.1-1.7,0,0,0,0,0,0l7.7-36c.2-.8.9-1.3,1.7-1.1l36,7.7c.8.2,1.3.9,1.1,1.7ZM205.6,411.5l-7.7,36c-.2.8-.9,1.3-1.7,1.1,0,0,0,0,0,0l-36-7.7c-.8-.2-1.3-.9-1.1-1.7l7.7-36c.2-.8.9-1.3,1.7-1.1l36,7.7c.8.2,1.3.9,1.1,1.7ZM173.1,308.6l-7.7,36c-.2.8-.9,1.3-1.7,1.1l-36-7.7c-.8-.2-1.3-.9-1.1-1.7l7.7-36c.2-.8.9-1.3,1.7-1.1l36,7.7c.8.2,1.3.9,1.1,1.7ZM149.8,414.7l-7.7,36c-.2.8-.9,1.3-1.7,1.1l-36-7.7c-.8-.2-1.3-.9-1.1-1.7l7.7-36c.2-.8.9-1.3,1.7-1.1l36,7.7c.8.2,1.3.9,1.1,1.7ZM310.7,539.5l7.7,36c.2.8-.3,1.5-1.1,1.7,0,0,0,0,0,0l-36,7.7c-.8.2-1.5-.3-1.7-1.1l-7.7-36c-.2-.8.3-1.5,1.1-1.7l36-7.7c.8-.2,1.5.3,1.7,1.1,0,0,0,0,0,0ZM258.6,554.3l7.7,36c.2.8-.3,1.5-1.1,1.7,0,0,0,0,0,0l-36,7.7c-.8.2-1.5-.3-1.7-1.1,0,0,0,0,0,0l-7.7-36c-.2-.8.3-1.5,1.1-1.7l36-7.7c.8-.2,1.5.3,1.7,1.1ZM270.2,606.6l7.7,36c.2.8-.3,1.5-1.1,1.7l-36,7.7c-.8.2-1.5-.3-1.7-1.1l-7.7-36c-.2-.8.3-1.5,1.1-1.7l36-7.7c.8-.2,1.5.3,1.7,1.1ZM281.9,659.6l7.7,36c.2.8-.3,1.5-1.1,1.7l-36,7.7c-.8.2-1.5-.3-1.7-1.1,0,0,0,0,0,0l-7.7-36c-.2-.8.3-1.5,1.1-1.7,0,0,0,0,0,0l36-7.7c.8-.2,1.5.3,1.7,1.1ZM200.8,544l7.7,36c.2.8-.3,1.5-1.1,1.7,0,0,0,0,0,0l-36,7.7c-.8.2-1.5-.3-1.7-1.1l-7.7-36c-.2-.8.3-1.5,1.1-1.7l36-7.7c.8-.2,1.5.3,1.7,1.1ZM212,597.3l7.7,36c.2.8-.3,1.5-1.1,1.7l-36,7.7c-.8.2-1.5-.3-1.7-1.1l-7.7-36c-.2-.8.3-1.5,1.1-1.7l36-7.7c.8-.2,1.5.3,1.7,1.1h0ZM224.1,649.8l7.7,36c.2.8-.3,1.5-1.1,1.7l-36,7.7c-.8.2-1.5-.3-1.7-1.1l-7.7-36c-.2-.8.3-1.5,1.1-1.7l36-7.7c.8-.2,1.5.3,1.7,1.1ZM235.3,701.5l7.7,36c.2.8-.3,1.5-1.1,1.7l-36,7.7c-.8.2-1.5-.3-1.7-1.1l-7.7-36c-.2-.8.3-1.5,1.1-1.7l36-7.7c.8-.2,1.5.3,1.7,1.1ZM160.1,607.5l7.7,36c.2.8-.3,1.5-1.1,1.7h0s-36,7.7-36,7.7c-.8.2-1.5-.3-1.7-1.1l-7.7-36c-.2-.8.3-1.5,1.1-1.7l36-7.7c.8-.2,1.5.3,1.7,1.1ZM399.7,284.6l-7.7,36c-.2.8-.9,1.3-1.7,1.1h0s-36-7.7-36-7.7c-.8-.2-1.3-.9-1.1-1.7l7.7-36c.2-.8.9-1.3,1.7-1.1l36,7.7c.8.2,1.3.9,1.1,1.7ZM388.1,337.1l-7.7,36c-.2.8-.9,1.3-1.7,1.1l-36-7.7c-.8-.2-1.3-.9-1.1-1.7l7.7-36c.2-.8.9-1.3,1.7-1.1l36,7.7c.8.2,1.3.9,1.1,1.7ZM328.6,358.6l-7.7,36c-.2.8-.9,1.3-1.7,1.1,0,0,0,0,0,0l-36-7.7c-.8-.2-1.3-.9-1.1-1.7,0,0,0,0,0,0l7.7-36c.2-.8.9-1.3,1.7-1.1,0,0,0,0,0,0l36,7.7c.8.2,1.3.9,1.1,1.7ZM317.4,411.4l-7.7,36c-.2.8-.9,1.3-1.7,1.1l-36-7.7c-.8-.2-1.3-.9-1.1-1.7l7.7-36c.2-.8.9-1.3,1.7-1.1l36,7.7c.8.2,1.3.9,1.1,1.7ZM296.3,251.9l-7.7,36c-.2.8-.9,1.3-1.7,1.1l-36-7.7c-.8-.2-1.3-.9-1.1-1.7l7.7-36c.2-.8.9-1.3,1.7-1.1,0,0,0,0,0,0l36,7.7c.8.2,1.3.9,1.1,1.7ZM402.4,704.8l7.7,36c.2.8-.3,1.5-1.1,1.7l-36,7.7c-.8.2-1.5-.3-1.7-1.1l-7.7-36c-.2-.8.3-1.5,1.1-1.7h0s36-7.7,36-7.7c.8-.2,1.5.3,1.7,1.1ZM322.7,593.5l7.7,36c.2.8-.3,1.5-1.1,1.7l-36,7.7c-.8.2-1.5-.3-1.7-1.1l-7.7-36c-.2-.8.3-1.5,1.1-1.7l36-7.7c.8-.2,1.5.3,1.7,1.1ZM334,646.5l7.7,36c.2.8-.3,1.5-1.1,1.7,0,0,0,0,0,0l-36,7.7c-.8.2-1.5-.3-1.7-1.1l-7.7-36c-.2-.8.3-1.5,1.1-1.7l36-7.7c.8-.2,1.5.3,1.7,1.1ZM345.3,699.3l7.7,36c.2.8-.3,1.5-1.1,1.7l-36,7.7c-.8.2-1.5-.3-1.7-1.1l-7.7-36c-.2-.8.3-1.5,1.1-1.7,0,0,0,0,0,0l36-7.7c.8-.2,1.5.3,1.7,1.1ZM293,711.3l7.7,36c.2.8-.3,1.5-1.1,1.7l-36,7.7c-.8.2-1.5-.3-1.7-1.1l-7.7-36c-.2-.8.3-1.5,1.1-1.7l36-7.7c.8-.2,1.5.3,1.7,1.1ZM370.9,550.8v-76h111.7v76h-111.7ZM240.8,78.9v17c0,.8-.6,1.4-1.4,1.4h-39.7c-.8,0-1.4-.6-1.4-1.4v-17c0-.8.6-1.4,1.4-1.4h39.7c.8,0,1.4.6,1.4,1.4ZM240.8,146.5v17c0,.8-.6,1.4-1.4,1.4h-39.7c-.8,0-1.4-.6-1.4-1.4v-17c0-.8.6-1.4,1.4-1.4h39.7c.8,0,1.4.6,1.4,1.4ZM161.2,350.8l-3.5,16.6c-.2.8-.9,1.3-1.7,1.1l-38.8-8.2c-.8-.2-1.3-.9-1.1-1.7l3.5-16.6c.2-.8.9-1.3,1.7-1.1l38.8,8.2c.8.2,1.3.9,1.1,1.7ZM175.3,284.6l-3.5,16.6c-.2.8-.9,1.3-1.7,1.1l-38.8-8.3c-.8-.2-1.3-.9-1.1-1.7l3.5-16.6c.2-.8.9-1.3,1.7-1.1,0,0,0,0,0,0l38.8,8.3c.8.2,1.3.9,1.1,1.7ZM170.6,670.6l3.5,16.6c.2.8-.3,1.5-1.1,1.7l-38.8,8.3c-.8.2-1.5-.3-1.7-1.1l-3.5-16.6c-.2-.8.3-1.5,1.1-1.7l38.8-8.3c.8-.2,1.5.3,1.7,1.1ZM148.2,565l3.5,16.6c.2.8-.3,1.5-1.1,1.7l-38.8,8.3c-.8.2-1.5-.3-1.7-1.1l-3.5-16.6c-.2-.8.3-1.5,1.1-1.7l38.8-8.3c.8-.2,1.5.3,1.7,1.1,0,0,0,0,0,0ZM243.9,920.9v36.9c0,.8-.6,1.4-1.4,1.4h-36.9c-.8,0-1.4-.6-1.4-1.4v-36.9c0-.8.6-1.4,1.4-1.4h36.9c.8,0,1.4.6,1.4,1.4ZM241,896.9v17c0,.8-.6,1.4-1.4,1.4h-39.7c-.8,0-1.4-.6-1.4-1.4v-17c0-.8.6-1.4,1.4-1.4h39.7c.8,0,1.4.6,1.4,1.4ZM241,964.6v17c0,.8-.6,1.4-1.4,1.4h-39.7c-.8,0-1.4-.6-1.4-1.4v-17c0-.8.6-1.4,1.4-1.4h39.7c.8,0,1.4.6,1.4,1.4ZM295.4,896.1v17c0,.8-.6,1.4-1.4,1.4h-39.7c-.8,0-1.4-.6-1.4-1.4v-17c0-.8.6-1.4,1.4-1.4h39.7c.8,0,1.4.6,1.4,1.4ZM295.4,963.8v17c0,.8-.6,1.4-1.4,1.4h-39.7c-.8,0-1.4-.6-1.4-1.4v-17c0-.8.6-1.4,1.4-1.4h39.7c.8,0,1.4.6,1.4,1.4ZM403.8,880.3v17c0,.8-.6,1.4-1.4,1.4h-39.7c-.8,0-1.4-.6-1.4-1.4v-17c0-.8.6-1.4,1.4-1.4h39.7c.8,0,1.4.6,1.4,1.4ZM403.8,948v17c0,.8-.6,1.4-1.4,1.4h-39.7c-.8,0-1.4-.6-1.4-1.4v-17c0-.8.6-1.4,1.4-1.4h39.7c.8,0,1.4.6,1.4,1.4Z" vector-effect="non-scaling-stroke"/>
  </g>
</svg>